<svg width="94" height="94" viewBox="0 0 94 94" fill="none" xmlns="http://www.w3.org/2000/svg">
<path fill-rule="evenodd" clip-rule="evenodd" d="M66.5016 47.2831C66.5016 47.9378 66.2415 48.5657 65.7786 49.0287C65.3156 49.4916 64.6877 49.7517 64.033 49.7517H35.4321L46.0322 60.3468C46.2617 60.5763 46.4438 60.8488 46.568 61.1487C46.6922 61.4486 46.7561 61.77 46.7561 62.0946C46.7561 62.4192 46.6922 62.7406 46.568 63.0404C46.4438 63.3403 46.2617 63.6128 46.0322 63.8423C45.8027 64.0718 45.5302 64.2539 45.2303 64.3781C44.9304 64.5023 44.609 64.5663 44.2844 64.5663C43.9598 64.5663 43.6384 64.5023 43.3385 64.3781C43.0387 64.2539 42.7662 64.0718 42.5367 63.8423L27.7252 49.0309C27.4953 48.8016 27.313 48.5292 27.1885 48.2292C27.0641 47.9293 27 47.6078 27 47.2831C27 46.9584 27.0641 46.6369 27.1885 46.337C27.313 46.0371 27.4953 45.7647 27.7252 45.5354L42.5367 30.7239C43.0002 30.2604 43.6289 30 44.2844 30C44.94 30 45.5686 30.2604 46.0322 30.7239C46.4957 31.1875 46.7561 31.8162 46.7561 32.4717C46.7561 33.1272 46.4957 33.7559 46.0322 34.2194L35.4321 44.8146H64.033C64.6877 44.8146 65.3156 45.0746 65.7786 45.5376C66.2415 46.0005 66.5016 46.6284 66.5016 47.2831Z" fill="#1B1A19"/>
</svg>
