<svg width="64" height="64" viewBox="0 0 64 64" fill="none" xmlns="http://www.w3.org/2000/svg">
<path d="M0 10C0 4.47715 4.47715 0 10 0H54C59.5228 0 64 4.47715 64 10V54C64 59.5228 59.5228 64 54 64H10C4.47715 64 0 59.5228 0 54V10Z" fill="#8EC39B"/>
<path fill-rule="evenodd" clip-rule="evenodd" d="M41.9584 32.1448C41.9584 32.4791 41.8256 32.7997 41.5892 33.0361C41.3528 33.2725 41.0321 33.4053 40.6978 33.4053H26.0931L31.5059 38.8156C31.6231 38.9328 31.7161 39.0719 31.7795 39.225C31.8429 39.3782 31.8756 39.5423 31.8756 39.708C31.8756 39.8738 31.8429 40.0379 31.7795 40.191C31.7161 40.3442 31.6231 40.4833 31.5059 40.6005C31.3887 40.7177 31.2496 40.8107 31.0964 40.8741C30.9433 40.9375 30.7792 40.9702 30.6134 40.9702C30.4477 40.9702 30.2836 40.9375 30.1304 40.8741C29.9773 40.8107 29.8382 40.7177 29.721 40.6005L22.1577 33.0372C22.0403 32.9201 21.9472 32.781 21.8836 32.6279C21.8201 32.4747 21.7874 32.3106 21.7874 32.1448C21.7874 31.979 21.8201 31.8148 21.8836 31.6616C21.9472 31.5085 22.0403 31.3694 22.1577 31.2523L29.721 23.689C29.9577 23.4523 30.2787 23.3193 30.6134 23.3193C30.9482 23.3193 31.2692 23.4523 31.5059 23.689C31.7426 23.9257 31.8756 24.2467 31.8756 24.5815C31.8756 24.9162 31.7426 25.2372 31.5059 25.4739L26.0931 30.8842H40.6978C41.0321 30.8842 41.3528 31.017 41.5892 31.2534C41.8256 31.4898 41.9584 31.8104 41.9584 32.1448Z" fill="#1B1A19"/>
</svg>
