<svg width="52" height="48" viewBox="0 0 52 48" fill="none" xmlns="http://www.w3.org/2000/svg">
<g clip-path="url(#clip0)">
<path d="M50.9784 20.1845L47.822 4.68714C47.7739 4.4513 47.648 4.23964 47.4655 4.0877C47.2831 3.93575 47.0552 3.85279 46.8201 3.85273H33.8455V1.04877C33.8455 0.770615 33.7377 0.503856 33.5458 0.307175C33.3539 0.110493 33.0936 -4.28777e-10 32.8222 0H7.0889C6.87494 2.89872e-05 6.66636 0.0687919 6.49251 0.19662C6.31865 0.324449 6.18826 0.504913 6.11966 0.712638C6.05106 0.920363 6.04771 1.1449 6.11008 1.35468C6.17244 1.56446 6.29739 1.74893 6.46735 1.88215L12.2052 6.37536V9.01176C8.87402 10.9366 6.08939 13.7174 4.12548 17.0805C2.16157 20.4436 1.0861 24.273 1.00496 28.1916C0.923815 32.1102 1.8398 35.9829 3.66272 39.4284C5.48564 42.8739 8.15264 45.7733 11.4011 47.8413C11.5634 47.945 11.7508 48 11.942 48H34.128C34.3192 48 34.5066 47.945 34.6689 47.8413C37.7037 45.9092 40.2343 43.2492 42.0422 40.0909C43.8501 36.9326 44.881 33.3708 45.0459 29.7129C45.2108 26.055 44.5048 22.4109 42.9888 19.0952C41.4728 15.7794 39.1924 12.8916 36.3443 10.6808H42.1901L49.1344 20.9946C49.2686 21.1939 49.466 21.3395 49.693 21.4066C49.92 21.4738 50.1627 21.4583 50.3798 21.3629C50.597 21.2675 50.7752 21.098 50.8843 20.8832C50.9935 20.6684 51.0267 20.4215 50.9784 20.1845ZM10.1134 2.09759H31.799V8.56994H14.2517V5.85677C14.2517 5.69557 14.2155 5.53653 14.1458 5.39201C14.0761 5.24748 13.9749 5.12135 13.85 5.02341L10.1134 2.09759ZM33.8315 45.9024H12.2385C9.92548 44.3896 7.94322 42.4022 6.41662 40.0654C4.89001 37.7286 3.85213 35.093 3.36839 32.3248C4.16898 32.1683 4.91748 31.8053 5.54333 31.2702C6.11114 30.7325 6.85955 30.4402 7.6325 30.4542C8.40652 30.4403 9.1559 30.7332 9.72431 31.2719C10.571 32.0047 11.6435 32.4066 12.7517 32.4063C13.8599 32.4061 14.9322 32.0037 15.7786 31.2705C16.3538 30.7447 17.0977 30.4541 17.8685 30.4542C18.6392 30.4543 19.3831 30.7449 19.9582 31.2708C20.8049 32.0041 21.8776 32.4064 22.9861 32.4064C24.0946 32.4063 25.1672 32.0039 26.0138 31.2705C26.5895 30.7447 27.3336 30.4542 28.1047 30.4542C28.8758 30.4543 29.6199 30.7449 30.1955 31.2708C31.0423 32.0041 32.1151 32.4063 33.2236 32.4063C34.3322 32.4063 35.4049 32.0041 36.2518 31.2708C36.8277 30.7447 37.5723 30.454 38.3437 30.4542C39.1152 30.4544 39.8597 30.7454 40.4354 31.2719C41.0835 31.8282 41.8647 32.1972 42.6984 32.341C42.213 35.106 41.1746 37.7382 39.6486 40.0721C38.1227 42.406 36.1421 44.391 33.8315 45.9024ZM43.0228 28.6636C43.0228 29.2003 42.9961 29.7319 42.9565 30.2607C42.4734 30.156 42.0252 29.9243 41.6558 29.5884C40.7261 28.7924 39.5531 28.3564 38.3417 28.3567C37.1302 28.3569 35.9574 28.7934 35.028 29.5898C34.5349 30.0527 33.8905 30.3092 33.2219 30.3088C32.5532 30.3083 31.9091 30.0509 31.4166 29.5874C30.487 28.792 29.3144 28.3564 28.1035 28.3567C26.8925 28.3569 25.7201 28.793 24.7908 29.5888C24.2977 30.0522 23.653 30.3092 22.984 30.3088C22.315 30.3084 21.6706 30.0507 21.178 29.5867C20.249 28.7917 19.0771 28.3563 17.8668 28.3567C16.6565 28.357 15.4848 28.7929 14.5562 29.5884C14.0635 30.0518 13.4191 30.3088 12.7505 30.3088C12.0818 30.3088 11.4375 30.0518 10.9448 29.5884C10.0237 28.7784 8.84605 28.3405 7.6325 28.3566C6.41901 28.3408 5.24149 28.7787 4.32023 29.5884C3.97317 29.9016 3.55908 30.1266 3.11146 30.2452C3.07265 29.7215 3.0465 29.195 3.0465 28.6636C3.04316 24.9782 4.01145 21.3604 5.849 18.1926C7.68654 15.0248 10.3251 12.4248 13.4856 10.6675H32.5837C35.7443 12.4248 38.3828 15.0248 40.2203 18.1926C42.0579 21.3604 43.0262 24.9782 43.0228 28.6636ZM43.5691 9.03629C43.475 8.89654 43.3492 8.78229 43.2026 8.70337C43.0559 8.62445 42.8927 8.58322 42.7271 8.58322H33.8455V5.95033H45.9887L47.9386 15.5257L43.5691 9.03629Z" fill="#1B1A19"/>
</g>
<defs>
<clipPath id="clip0">
<rect width="52" height="48" fill="white"/>
</clipPath>
</defs>
</svg>
