<svg width="56" height="56" viewBox="0 0 56 56" fill="none" xmlns="http://www.w3.org/2000/svg">
<path d="M10.0731 1.79053C5.51539 1.79053 1.80762 6.68124 1.80762 12.6933C1.80762 16.2071 3.11562 19.5434 5.30638 21.6178C6.42538 22.6783 7.09745 23.5595 6.81561 28.1266C6.47708 33.6142 5.99068 49.3153 5.98512 49.5072C5.98512 51.7504 7.81899 53.5753 10.0731 53.5753C12.3272 53.5753 14.1611 51.7504 14.1606 49.4729C14.1556 49.3147 13.6692 33.6142 13.3306 28.126C13.0493 23.5589 13.7209 22.6772 14.8399 21.6173C17.0306 19.5428 18.3386 16.206 18.3386 12.6927C18.3381 6.68124 14.6303 1.79053 10.0731 1.79053ZM13.3067 20.0147C11.5401 21.6881 10.8036 23.2763 11.111 28.2621C11.4467 33.716 11.9331 49.3839 11.937 49.5072C11.937 50.5306 11.101 51.3626 10.0726 51.3626C9.04417 51.3626 8.20811 50.5306 8.20811 49.5415C8.21312 49.3839 8.69841 33.7165 9.03472 28.2621C9.34268 23.2763 8.60613 21.6886 6.83952 20.0147C5.08069 18.3496 4.03117 15.6124 4.03117 12.6933C4.03117 7.90157 6.74113 4.00327 10.0731 4.00327C13.4051 4.00327 16.1151 7.90157 16.1151 12.6933C16.1145 15.6124 15.065 18.3496 13.3067 20.0147Z" fill="black"/>
<path d="M38.016 1.89481C37.4023 1.89481 36.9042 2.39047 36.9042 3.00118V12.797C36.9042 15.7167 35.8547 18.4539 34.0958 20.119C32.3292 21.7923 31.5932 23.3805 31.9001 28.3664C32.2364 33.8203 32.7222 49.4881 32.7261 49.6115C32.7261 50.6343 31.8901 51.4669 30.8617 51.4669C29.8333 51.4669 28.9972 50.6349 28.9972 49.6458C29.0022 49.4881 29.4881 33.8203 29.8238 28.3664C30.1313 23.3805 29.3953 21.7929 27.6281 20.119C25.8698 18.4533 24.8197 15.7162 24.8197 12.797V2.78655C24.8197 2.17583 24.3217 1.68018 23.708 1.68018C23.0943 1.68018 22.5962 2.17583 22.5962 2.78655V12.7975C22.5962 16.3103 23.9042 19.6465 26.095 21.7221C27.214 22.7825 27.886 23.6638 27.6042 28.2314C27.2662 33.7185 26.7792 49.4201 26.7737 49.612C26.7737 51.8552 28.6076 53.6802 30.8617 53.6802C33.1158 53.6802 34.9497 51.8552 34.9491 49.5783C34.9441 49.4206 34.4583 33.719 34.1192 28.2314C33.8379 23.6643 34.5094 22.7825 35.6284 21.7226C37.8192 19.6482 39.1272 16.3119 39.1272 12.7981V3.00118C39.1277 2.39047 38.6302 1.89481 38.016 1.89481Z" fill="black"/>
<path d="M28.6132 15.0198C29.2269 15.0198 29.725 14.5241 29.725 13.9134V2.98577C29.725 2.37505 29.2269 1.87939 28.6132 1.87939C27.9995 1.87939 27.5015 2.37505 27.5015 2.98577V13.9134C27.5015 14.5247 27.9995 15.0198 28.6132 15.0198Z" fill="black"/>
<path d="M34.2236 13.9134V2.98577C34.2236 2.37505 33.7255 1.87939 33.1118 1.87939C32.4981 1.87939 32 2.37505 32 2.98577V13.9134C32 14.5241 32.4981 15.0198 33.1118 15.0198C33.7255 15.0198 34.2236 14.5247 34.2236 13.9134Z" fill="black"/>
<path d="M53.1579 1.87932C52.7626 1.69898 52.2968 1.76647 51.9677 2.0497C51.6697 2.30693 44.6633 8.59666 44.6633 30.068C44.6633 30.6787 45.1614 31.1744 45.7751 31.1744C45.9836 31.1744 46.301 31.2197 46.6451 31.6086C47.3577 32.4157 47.7396 34.2191 47.5323 35.8128L45.8713 49.4953C45.8657 49.5396 45.8629 49.5838 45.8629 49.6281C45.8629 51.8076 47.6451 53.5806 49.8353 53.5806C52.0255 53.5806 53.8077 51.8076 53.8077 49.6281V2.88557C53.8077 2.45242 53.5536 2.05911 53.1579 1.87932ZM51.5841 49.6281C51.5841 50.5873 50.7998 51.3679 49.8353 51.3679C48.8903 51.3679 48.1182 50.6188 48.087 49.6867L49.7375 36.0878C49.9821 34.2103 49.6369 31.6457 48.3144 30.1482C47.9025 29.6819 47.4211 29.3478 46.8902 29.1552C47.0136 16.4856 49.6941 9.58022 51.583 6.27272V49.6281H51.5841Z" fill="black"/>
</svg>
