<svg width="124" height="136" viewBox="0 0 124 136" fill="none" xmlns="http://www.w3.org/2000/svg">
<path fill-rule="evenodd" clip-rule="evenodd" d="M107.005 76.4405C107.303 78.2315 107.466 80.0618 107.49 81.9223C116.677 82.3195 124 89.7771 124 98.9168C124 108.313 116.264 115.928 106.719 115.928C101.976 115.928 97.6785 114.044 94.5565 110.998C85.7607 119.241 73.2182 124.469 59.2514 124.677H116.785C116.785 129.005 115.29 129.894 111.507 129.894H92.7483C92.7483 133.936 89.0546 136 85.3879 136H31.3967C27.7272 136 24.0363 133.936 24.0363 129.894H5.27602C1.49309 129.894 0 129.005 0 124.677H57.7601C30.9328 124.384 9.28952 105.573 9.28952 82.4092C9.28952 80.383 9.45779 78.3889 9.77854 76.4414H107.006L107.005 76.4405ZM43.0486 28.6591C36.9656 39.0297 71.9761 57.3475 56.3302 72.7497C60.2201 58.4531 29.3254 42.1669 43.0486 28.6591ZM48.6575 0C38.6196 17.1135 96.3834 47.3375 70.5676 72.7497C76.989 49.1605 26.0147 22.2887 48.6575 0V0ZM106.473 91.0181C105.352 95.6817 103.338 100.063 100.594 104.025C102.068 105.734 104.265 106.82 106.72 106.82C111.155 106.82 114.75 103.282 114.75 98.9159C114.75 94.5497 111.155 91.0117 106.72 91.0117L106.473 91.0172V91.0181ZM24.9158 80.545H13.5122C13.4769 81.1646 13.4583 81.786 13.4583 82.4083C13.4583 100.862 27.862 114.052 44.8141 118.72C33.5955 112.285 24.9158 102.713 24.9158 80.5459V80.545Z" fill="#1B1A19"/>
</svg>
