<svg width="124" height="106" viewBox="0 0 124 106" fill="none" xmlns="http://www.w3.org/2000/svg">
<path d="M61.9877 25.5068C49.5447 25.5068 37.6112 30.424 28.8126 39.1766C20.014 47.9293 15.071 59.8004 15.071 72.1785H108.904C108.904 59.8004 103.961 47.9293 95.1628 39.1766C86.3643 30.424 74.4308 25.5068 61.9877 25.5068ZM27.1198 67.1105C27.2361 65.9736 27.4104 64.8752 27.6235 63.7768C27.7591 63.1023 27.9334 62.4664 28.1078 61.8498C30.4277 52.9489 36.0295 45.2422 43.7997 40.2617C51.5699 35.2812 60.9395 33.3915 70.0461 34.9683C63.0703 36.149 56.5866 39.3112 51.3762 44.0738C46.1658 48.8365 42.4511 54.9964 40.6796 61.8113H96.8556C96.8556 63.5841 96.8556 65.3377 96.8556 67.1105H27.1198Z" fill="#1B1A19"/>
<path d="M8.6394 91.333L15.4968 98.2123C16.4039 99.1227 17.4845 99.8438 18.6752 100.334C19.866 100.823 21.1431 101.072 22.4316 101.064H101.465C102.767 101.082 104.059 100.839 105.264 100.349C106.468 99.8586 107.562 99.132 108.478 98.2123L115.413 91.333H8.6394Z" fill="#1B1A19"/>
<path d="M118.881 78.0171H5.09588C4.0992 78.0171 3.14334 78.411 2.43858 79.112C1.73382 79.8131 1.33789 80.764 1.33789 81.7554C1.33789 82.7469 1.73382 83.6978 2.43858 84.3989C3.14334 85.0999 4.0992 85.4938 5.09588 85.4938H118.881C119.878 85.4938 120.834 85.0999 121.539 84.3989C122.244 83.6978 122.639 82.7469 122.639 81.7554C122.639 80.764 122.244 79.8131 121.539 79.112C120.834 78.411 119.878 78.0171 118.881 78.0171Z" fill="#1B1A19"/>
<path d="M71.0716 7.64259C71.0716 2.65169 52.9016 2.65169 52.9016 7.64259C52.9052 9.16005 53.292 10.6523 54.0264 11.9823C54.7609 13.3123 55.8196 14.4373 57.1051 15.2542L55.2843 21.2086C59.7233 20.4892 64.25 20.4892 68.689 21.2086L66.8681 15.2542C68.1537 14.4373 69.2123 13.3123 69.9468 11.9823C70.6813 10.6523 71.0681 9.16005 71.0716 7.64259Z" fill="#1B1A19"/>
</svg>
