<svg width="33" height="33" viewBox="0 0 33 33" fill="none" xmlns="http://www.w3.org/2000/svg">
<path d="M2 0C0.895431 0 0 0.895431 0 2V31C0 32.1046 0.895431 33 2 33H31C32.1046 33 33 32.1046 33 31V2C33 0.895431 32.1046 0 31 0H2ZM15.04 21.9907C14.1969 22.8338 12.808 22.7566 12.0635 21.8252L8.65557 17.5617C8.24965 17.0538 8.33331 16.3129 8.84225 15.9084C9.34887 15.5057 10.0858 15.5885 10.4903 16.0936L12.2518 18.2927C12.9967 19.2227 14.3844 19.2992 15.227 18.4566L22.4871 11.1964C22.9493 10.7343 23.6986 10.7343 24.1607 11.1964C24.6229 11.6586 24.6229 12.4079 24.1607 12.87L15.04 21.9907Z" fill="#1B1A19" fill-opacity="0.5"/>
</svg>
