<svg width="23" height="23" viewBox="0 0 23 23" fill="none" xmlns="http://www.w3.org/2000/svg">
<path d="M2 0C0.89543 0 0 0.895431 0 2V21C0 22.1046 0.895431 23 2 23H21C22.1046 23 23 22.1046 23 21V2C23 0.89543 22.1046 0 21 0H2ZM10.9614 14.8479C10.1183 15.691 8.72943 15.6138 7.98496 14.6824L6.03267 12.24C5.74976 11.886 5.80807 11.3696 6.16278 11.0876C6.51588 10.807 7.02947 10.8647 7.31145 11.2168L8.11604 12.2213C8.86095 13.1513 10.2487 13.2277 11.0913 12.3852L15.6729 7.80357C15.995 7.48147 16.5172 7.48147 16.8393 7.80357C17.1614 8.12567 17.1614 8.6479 16.8393 8.97L10.9614 14.8479Z" fill="#1B1A19" fill-opacity="0.5"/>
</svg>
