<svg width="23" height="23" viewBox="0 0 23 23" fill="none" xmlns="http://www.w3.org/2000/svg">
<path d="M2 1.5H21V-1.5H2V1.5ZM21.5 2V21H24.5V2H21.5ZM21 21.5H2V24.5H21V21.5ZM1.5 21V2H-1.5V21H1.5ZM2 21.5C1.72386 21.5 1.5 21.2761 1.5 21H-1.5C-1.5 22.933 0.0670024 24.5 2 24.5V21.5ZM21.5 21C21.5 21.2761 21.2761 21.5 21 21.5V24.5C22.933 24.5 24.5 22.933 24.5 21H21.5ZM21 1.5C21.2761 1.5 21.5 1.72386 21.5 2H24.5C24.5 0.067004 22.933 -1.5 21 -1.5V1.5ZM2 -1.5C0.067004 -1.5 -1.5 0.0670024 -1.5 2H1.5C1.5 1.72386 1.72386 1.5 2 1.5V-1.5Z" fill="#1B1A19"/>
</svg>
