<svg width="33" height="33" viewBox="0 0 33 33" fill="none" xmlns="http://www.w3.org/2000/svg">
<path d="M2 2.5H31V-2.5H2V2.5ZM30.5 2V31H35.5V2H30.5ZM31 30.5H2V35.5H31V30.5ZM2.5 31V2H-2.5V31H2.5ZM2 30.5C2.27614 30.5 2.5 30.7239 2.5 31H-2.5C-2.5 33.4853 -0.485281 35.5 2 35.5V30.5ZM30.5 31C30.5 30.7239 30.7239 30.5 31 30.5V35.5C33.4853 35.5 35.5 33.4853 35.5 31H30.5ZM31 2.5C30.7239 2.5 30.5 2.27614 30.5 2H35.5C35.5 -0.485281 33.4853 -2.5 31 -2.5V2.5ZM2 -2.5C-0.485281 -2.5 -2.5 -0.485281 -2.5 2H2.5C2.5 2.27614 2.27614 2.5 2 2.5V-2.5Z" fill="#1B1A19"/>
</svg>
