<svg width="32" height="32" viewBox="0 0 32 32" fill="none" xmlns="http://www.w3.org/2000/svg">
<path d="M17.3768 15.9943L27.7153 5.65183C27.8977 5.46865 28 5.22069 27.9998 4.96227C27.9996 4.70385 27.897 4.45603 27.7144 4.27309C27.3488 3.90958 26.7049 3.90775 26.3357 4.27492L16 14.6173L5.66064 4.27217C5.29325 3.90958 4.64939 3.91142 4.28383 4.274C4.1931 4.36432 4.12127 4.4718 4.07254 4.59016C4.02381 4.70852 3.99916 4.83539 4.00002 4.96338C4.00002 5.22407 4.10105 5.46824 4.28383 5.64908L14.6223 15.9933L4.28475 26.3385C4.10233 26.522 4.00017 26.7703 4.00068 27.0289C4.0012 27.2876 4.10435 27.5354 4.28751 27.7182C4.46477 27.8935 4.71552 27.9945 4.97453 27.9945H4.98004C5.23997 27.9936 5.49072 27.8917 5.66431 27.7145L16 17.3721L26.3394 27.7173C26.5222 27.899 26.7665 28 27.0255 28C27.1536 28.0004 27.2804 27.9754 27.3988 27.9266C27.5172 27.8778 27.6248 27.8061 27.7154 27.7155C27.8059 27.625 27.8777 27.5175 27.9266 27.3992C27.9754 27.2809 28.0004 27.1541 28 27.0261C28 26.7663 27.899 26.5212 27.7153 26.3404L17.3768 15.9943Z" fill="black"/>
</svg>
