<svg width="150" height="150" viewBox="0 0 150 150" fill="none" xmlns="http://www.w3.org/2000/svg">
<path d="M74.9841 135L90.4934 122.484M74.9841 135V78.6772V135ZM74.9841 135L59.4749 122.484L74.9841 135Z" stroke="#1B1A19" stroke-width="12.5" stroke-linecap="round" stroke-linejoin="round"/>
<path d="M31.7688 54.377C25.9014 55.8663 20.7751 59.4658 17.353 64.499C13.9308 69.5323 12.4485 75.6529 13.1844 81.7109C13.9203 87.769 16.8238 93.3474 21.3495 97.3982C25.8751 101.449 31.7113 103.693 37.7616 103.709H43.9653" stroke="#1B1A19" stroke-width="12.5" stroke-linecap="round" stroke-linejoin="round"/>
<path d="M98.7436 41.992C96.6233 33.5221 91.3896 26.1824 84.1037 21.4608C76.8177 16.7392 68.0245 14.9889 59.5067 16.5648C50.9889 18.1406 43.3838 22.9247 38.233 29.9473C33.0822 36.9698 30.7711 45.7053 31.7683 54.383C31.7683 54.383 32.7175 59.9026 34.6593 63.0317" stroke="#1B1A19" stroke-width="12.5" stroke-linecap="round" stroke-linejoin="round"/>
<path d="M106.002 103.71C110.383 103.707 114.712 102.768 118.707 100.955C122.701 99.1427 126.27 96.4971 129.178 93.1929C132.086 89.8887 134.267 86.0006 135.578 81.7847C136.889 77.5688 137.3 73.1207 136.784 68.733C136.268 64.3453 134.837 60.1176 132.584 56.3282C130.332 52.5387 127.309 49.2735 123.716 46.7473C120.122 44.2212 116.039 42.4914 111.735 41.6719C107.431 40.8523 103.003 40.9616 98.7441 41.9925L90.4932 44.2579" stroke="#1B1A19" stroke-width="12.5" stroke-linecap="round" stroke-linejoin="round"/>
</svg>
