<svg width="56" height="56" viewBox="0 0 56 56" fill="none" xmlns="http://www.w3.org/2000/svg">
<g clip-path="url(#clip0)">
<path d="M54.7865 31.6632C53.6987 28.9311 51.833 26.5795 49.4216 24.9006C47.0101 23.2217 44.1591 22.2896 41.223 22.2203C39.1585 22.1321 37.0973 22.4595 35.1614 23.1833C33.2255 23.9071 31.4543 25.0124 29.9525 26.4339L26.7473 23.387C27.8845 22.3254 28.7979 21.0463 29.4336 19.6252C30.0692 18.2042 30.4141 16.6701 30.448 15.1134C30.4819 13.5567 30.2041 12.009 29.631 10.5615C29.0579 9.11412 28.201 7.79634 27.111 6.68599L26.5639 6.11957L17.1911 14.3033L14.2928 11.5482C15.2968 10.3429 15.801 8.79782 15.7016 7.23132C15.6022 5.66481 14.9069 4.1961 13.7587 3.12765C12.5709 2.02583 11.0371 1.37252 9.42067 1.27989C7.80426 1.18726 6.20607 1.66109 4.9005 2.62003L2.38135 0.225349C2.22593 0.0805158 2.02151 0 1.80921 0C1.59692 0 1.3925 0.0805158 1.23708 0.225349C1.1623 0.294773 1.10265 0.378914 1.06185 0.4725C1.02106 0.566087 1 0.667102 1 0.769218C1 0.871333 1.02106 0.972349 1.06185 1.06594C1.10265 1.15952 1.1623 1.24366 1.23708 1.31309L3.75618 3.70772C2.75222 4.91309 2.248 6.45812 2.34737 8.02462C2.44673 9.59113 3.1421 11.0598 4.29029 12.1283C5.47748 13.2313 7.01142 13.8854 8.62818 13.9781C10.2449 14.0707 11.8434 13.5961 13.1485 12.636L15.9982 15.3449L7.82522 22.4811L8.37268 23.0478C10.7027 25.4407 13.8664 26.8387 17.202 26.9493C17.3869 26.9567 17.5712 26.9604 17.7548 26.9603C20.5555 26.9709 23.2853 26.0787 25.5406 24.4155L28.8739 27.5841C26.6592 30.1606 25.4784 33.4687 25.5602 36.8674C25.642 40.2661 26.9807 43.5134 29.3168 45.98C28.5846 52.8613 36.3015 55.9134 36.381 55.9441C36.4933 55.987 36.6133 56.0056 36.7332 55.9986C36.8531 55.9916 36.9702 55.9592 37.0767 55.9035C37.1804 55.8501 37.2707 55.7737 37.3407 55.6803C37.4107 55.5869 37.4587 55.4788 37.481 55.3642C37.8295 53.4449 37.448 51.4645 36.4118 49.8127C36.7744 49.8368 37.1719 49.8528 37.591 49.8528C39.2 49.8528 41.1193 49.6187 42.5395 48.7172C42.6404 48.6546 42.7252 48.5693 42.7873 48.468C42.8494 48.3668 42.887 48.2524 42.897 48.134C42.9055 48.0161 42.886 47.8978 42.8401 47.7889C42.7943 47.68 42.7233 47.5835 42.6331 47.5072C42.4218 47.3253 37.6 43.2506 32.0747 43.6111C31.8535 42.571 31.8579 41.4955 32.0877 40.4573C32.369 39.2491 32.935 38.1259 33.7384 37.1815C34.5418 36.2372 35.5592 35.4992 36.7057 35.0292L40.5336 38.6677C40.689 38.8125 40.8934 38.893 41.1057 38.893C41.318 38.893 41.5225 38.8125 41.6779 38.6677C41.7526 38.5982 41.8123 38.5141 41.8531 38.4205C41.8939 38.3269 41.915 38.2259 41.915 38.1238C41.915 38.0217 41.8939 37.9207 41.8531 37.8271C41.8123 37.7335 41.7526 37.6493 41.6779 37.5799L38.4479 34.5097C38.9916 34.406 39.5442 34.3557 40.0977 34.3597C41.4118 34.3643 42.7057 34.6838 43.8713 35.2916C45.0369 35.8993 46.0403 36.7776 46.7977 37.8531C46.9741 38.1044 47.2001 38.3168 47.4616 38.4773C47.7232 38.6378 48.0148 38.7429 48.3185 38.7861C48.627 38.8325 48.9416 38.8165 49.2438 38.739C49.546 38.6614 49.8296 38.524 50.0779 38.3348L53.622 35.5992C54.2151 35.1576 54.6493 34.5352 54.8592 33.8255C55.0692 33.1159 55.0437 32.3571 54.7865 31.6632ZM12.6144 11.0406C11.6384 11.9477 10.356 12.4518 9.02449 12.4518C7.69293 12.4518 6.41058 11.9477 5.43455 11.0406C4.96622 10.6045 4.59267 10.0763 4.33725 9.48919C4.08182 8.90203 3.94999 8.26845 3.94999 7.628C3.94999 6.98754 4.08182 6.35396 4.33725 5.76681C4.59267 5.17966 4.96622 4.65154 5.43455 4.21543C6.41063 3.30842 7.69296 2.8044 9.02449 2.8044C10.356 2.8044 11.6383 3.30842 12.6144 4.21543C13.0828 4.65154 13.4563 5.17966 13.7117 5.76681C13.9672 6.35396 14.099 6.98754 14.099 7.628C14.099 8.26845 13.9672 8.90203 13.7117 9.48919C13.4563 10.0763 13.0828 10.6045 12.6144 11.0406ZM25.3614 9.2584C26.8361 11.0503 27.5481 13.3511 27.3436 15.6641C27.1391 17.9772 26.0346 20.1169 24.2684 21.6214C22.451 23.1833 20.1347 24.0409 17.7399 24.0387C15.3451 24.0365 13.0305 23.1746 11.216 21.6094L25.3614 9.2584ZM25.2527 22.6403C23.1438 24.4499 20.4541 25.4374 17.677 25.4217C14.8999 25.406 12.2215 24.3882 10.1331 22.555L10.7358 22.0287C12.5577 23.6351 14.8791 24.5597 17.305 24.6448C17.4545 24.6509 17.6036 24.6539 17.7523 24.6539C20.306 24.6669 22.7774 23.7503 24.7065 22.0745C26.5988 20.4632 27.7795 18.169 27.992 15.6906C28.2046 13.2122 27.4317 10.75 25.8415 8.83917L26.4454 8.3119C28.0955 10.2606 28.9492 12.762 28.8354 15.3146C28.7692 16.716 28.4172 18.0889 27.8011 19.3488C27.1849 20.6087 26.3176 21.7289 25.2527 22.6403H25.2527ZM40.5804 47.9231C38.4964 48.5985 35.7272 48.2233 34.9976 48.1059C33.9519 47.3307 33.1182 46.3041 32.5734 45.121C35.9167 45.0548 39.0578 46.8701 40.5804 47.9231ZM34.1583 49.452C35.3296 50.6931 35.9854 52.3341 35.9925 54.0418C34.3515 53.1588 31.2346 51.0219 30.9163 47.4638C31.9089 48.2608 32.9982 48.9289 34.1583 49.452ZM52.6016 34.4047L49.0578 37.1403C48.9888 37.1931 48.91 37.2314 48.8259 37.253C48.7418 37.2745 48.6543 37.2789 48.5685 37.2659C48.4854 37.2545 48.4056 37.226 48.334 37.1822C48.2624 37.1384 48.2006 37.0803 48.1525 37.0114C47.2446 35.7217 46.0417 34.6683 44.6443 33.9393C43.2468 33.2103 41.6954 32.827 40.1198 32.8212C35.5133 32.7587 31.4485 35.8405 30.5034 40.143C30.1626 41.6701 30.2318 43.2604 30.704 44.7521L30.8184 45.2298L30.7257 45.1648C29.3429 43.7533 28.3176 42.0308 27.7355 40.1413C27.1533 38.2518 27.0312 36.2502 27.3794 34.3038C28.4984 28.2004 34.1237 23.7461 40.592 23.7461C40.7789 23.7461 40.9666 23.7499 41.1553 23.7575C43.7765 23.8193 46.3218 24.6512 48.4747 26.1498C50.6277 27.6484 52.2934 29.7477 53.2648 32.1866C53.4086 32.5784 53.4218 33.0064 53.3022 33.4063C53.1827 33.8063 52.9368 34.1566 52.6016 34.4047Z" fill="#1B1A19"/>
<path d="M19.8974 17.123C19.9619 17.0707 20.0137 17.0044 20.049 16.9293C20.0843 16.8541 20.1022 16.772 20.1013 16.6889C20.1005 16.6059 20.0808 16.5242 20.0439 16.4498C20.0071 16.3754 19.9538 16.3103 19.8883 16.2593C19.5826 15.9435 19.0382 15.7633 18.7905 15.9791C18.5429 16.195 18.6859 16.7253 18.9916 17.0411C19.0439 17.1085 19.1095 17.1645 19.1843 17.2054C19.2592 17.2464 19.3417 17.2715 19.4267 17.2792C19.5117 17.2868 19.5973 17.2769 19.6783 17.2501C19.7593 17.2232 19.8339 17.1799 19.8974 17.123Z" fill="#1B1A19"/>
<path d="M15.9199 18.5045C15.6306 18.6671 15.6551 19.2139 15.8854 19.5829C15.9229 19.6593 15.9758 19.7271 16.0408 19.7821C16.1058 19.837 16.1815 19.8779 16.2631 19.9021C16.3447 19.9263 16.4304 19.9334 16.5149 19.9228C16.5993 19.9123 16.6807 19.8843 16.7538 19.8408C16.828 19.8033 16.8928 19.7497 16.9435 19.6839C16.9942 19.618 17.0295 19.5416 17.0466 19.4603C17.0638 19.379 17.0626 19.2949 17.0429 19.2142C17.0232 19.1335 16.9856 19.0582 16.9329 18.9939C16.7026 18.6249 16.2092 18.3419 15.9199 18.5045Z" fill="#1B1A19"/>
<path d="M22.1128 14.478C22.1772 14.5339 22.2525 14.576 22.334 14.6015C22.4154 14.627 22.5012 14.6355 22.5861 14.6263C22.671 14.6171 22.753 14.5906 22.8271 14.5483C22.9013 14.5059 22.9659 14.4488 23.0169 14.3804C23.0684 14.3151 23.1045 14.239 23.1225 14.1578C23.1406 14.0766 23.1401 13.9924 23.1212 13.9114C23.1023 13.8304 23.0654 13.7547 23.0132 13.6899C22.961 13.6251 22.895 13.5729 22.8199 13.5372C22.452 13.2881 21.8801 13.2186 21.6848 13.4784C21.4896 13.7383 21.7449 14.2289 22.1128 14.478Z" fill="#1B1A19"/>
<path d="M19.8577 20.9536C19.8952 21.03 19.9482 21.0978 20.0132 21.1527C20.0782 21.2076 20.1539 21.2485 20.2355 21.2727C20.3171 21.2969 20.4028 21.304 20.4873 21.2934C20.5717 21.2829 20.6531 21.255 20.7262 21.2114C20.8004 21.174 20.8652 21.1204 20.9159 21.0545C20.9666 20.9887 21.0019 20.9123 21.0191 20.831C21.0362 20.7497 21.035 20.6655 21.0153 20.5848C20.9956 20.5041 20.958 20.4288 20.9053 20.3646C20.675 19.9956 20.1816 19.7125 19.8923 19.8751C19.603 20.0377 19.6275 20.5846 19.8577 20.9536Z" fill="#1B1A19"/>
<path d="M23.2146 18.351C23.2791 18.407 23.3544 18.449 23.4358 18.4745C23.5173 18.5 23.6031 18.5085 23.688 18.4993C23.7728 18.4902 23.8549 18.4636 23.929 18.4213C24.0031 18.379 24.0677 18.3218 24.1187 18.2534C24.1702 18.1881 24.2063 18.112 24.2244 18.0308C24.2424 17.9496 24.242 17.8654 24.223 17.7844C24.2041 17.7034 24.1672 17.6277 24.115 17.563C24.0629 17.4982 23.9968 17.446 23.9217 17.4102C23.5539 17.1612 22.9819 17.0916 22.7866 17.3515C22.5914 17.6113 22.8467 18.102 23.2146 18.351Z" fill="#1B1A19"/>
</g>
<defs>
<clipPath id="clip0">
<rect width="56" height="56" fill="white"/>
</clipPath>
</defs>
</svg>
