<svg width="64" height="64" viewBox="0 0 64 64" fill="none" xmlns="http://www.w3.org/2000/svg">
<path d="M64 10C64 4.47715 59.5228 0 54 0H10C4.47715 0 0 4.47715 0 10V54C0 59.5228 4.47715 64 10 64H54C59.5228 64 64 59.5228 64 54V10Z" fill="#8EC39B"/>
<path fill-rule="evenodd" clip-rule="evenodd" d="M22.0416 32.1448C22.0416 32.4791 22.1744 32.7997 22.4108 33.0361C22.6472 33.2725 22.9679 33.4053 23.3022 33.4053H37.9069L32.4941 38.8156C32.3769 38.9328 32.2839 39.0719 32.2205 39.225C32.1571 39.3782 32.1244 39.5423 32.1244 39.708C32.1244 39.8738 32.1571 40.0379 32.2205 40.191C32.2839 40.3442 32.3769 40.4833 32.4941 40.6005C32.6113 40.7177 32.7504 40.8107 32.9036 40.8741C33.0567 40.9375 33.2208 40.9702 33.3866 40.9702C33.5523 40.9702 33.7164 40.9375 33.8696 40.8741C34.0227 40.8107 34.1618 40.7177 34.279 40.6005L41.8423 33.0372C41.9597 32.9201 42.0528 32.781 42.1164 32.6279C42.1799 32.4747 42.2126 32.3106 42.2126 32.1448C42.2126 31.979 42.1799 31.8148 42.1164 31.6616C42.0528 31.5085 41.9597 31.3694 41.8423 31.2523L34.279 23.689C34.0423 23.4523 33.7213 23.3193 33.3866 23.3193C33.0518 23.3193 32.7308 23.4523 32.4941 23.689C32.2574 23.9257 32.1244 24.2467 32.1244 24.5815C32.1244 24.9162 32.2574 25.2372 32.4941 25.4739L37.9069 30.8842H23.3022C22.9679 30.8842 22.6472 31.017 22.4108 31.2534C22.1744 31.4898 22.0416 31.8104 22.0416 32.1448Z" fill="#1B1A19"/>
</svg>
