<svg width="50" height="50" viewBox="0 0 50 50" fill="none" xmlns="http://www.w3.org/2000/svg">
<circle cx="25" cy="25" r="23.25" stroke="black" stroke-width="1.5"/>
<path d="M24.2261 31.5752C23.5998 32.4723 22.7238 33.1452 21.5982 33.5938C20.481 34.0339 19.1776 34.2539 17.688 34.2539C16.1815 34.2539 14.8443 33.9027 13.6763 33.2002C12.5083 32.4893 11.6027 31.4821 10.9595 30.1787C10.3247 28.8753 9.99888 27.3646 9.98195 25.6465V24.0342C9.98195 21.2497 10.6294 19.0915 11.9243 17.5596C13.2277 16.0277 15.0558 15.2617 17.4087 15.2617C19.3384 15.2617 20.8915 15.7568 22.0679 16.7471C23.2443 17.7288 23.9637 19.1253 24.2261 20.9365H21.7886C21.3316 18.4906 19.8758 17.2676 17.4214 17.2676C15.7879 17.2676 14.548 17.8431 13.7017 18.9941C12.8638 20.1367 12.4406 21.7956 12.4321 23.9707V25.4814C12.4321 27.555 12.9061 29.2054 13.854 30.4326C14.8019 31.6514 16.0842 32.2607 17.7007 32.2607C18.6148 32.2607 19.4146 32.1592 20.1001 31.9561C20.7857 31.7529 21.3527 31.4102 21.8013 30.9277V26.7764H17.523V24.7959H24.2261V31.5752ZM39.5356 25.8369H31.7788V34H29.3413V15.5156H40.7925V17.5215H31.7788V23.8438H39.5356V25.8369Z" fill="black"/>
</svg>
