<svg width="64" height="92" viewBox="0 0 64 92" fill="none" xmlns="http://www.w3.org/2000/svg">
<path d="M17.6462 68.1514C20.2998 71.5422 22.7149 75.114 24.874 78.841C26.7175 82.346 27.486 84.7227 28.8332 88.9459C29.6595 91.2793 30.4062 91.9757 32.0117 91.9757C33.7612 91.9757 34.555 90.791 35.1682 88.9587C36.4417 84.9704 37.441 81.9266 39.0175 79.0505C42.111 73.498 45.955 68.5638 49.732 63.8217C50.7545 62.4795 57.3655 54.6605 60.3417 48.491C60.3417 48.491 63.9997 41.7138 63.9997 32.2489C63.9997 23.3953 60.3922 17.2549 60.3922 17.2549L50.006 20.044L43.6985 36.702L42.138 38.999L41.826 39.4151L41.411 39.936L40.6825 40.768L39.6415 41.8116L34.0247 46.4001L19.9822 54.5302L17.6462 68.1514Z" fill="#34A853"/>
<path d="M3.15308 47.3514C6.58033 55.201 13.1893 62.1012 17.6608 68.1567L41.4111 39.9465C41.4111 39.9465 38.0651 44.3345 31.9956 44.3345C25.2348 44.3345 19.7731 38.921 19.7731 32.095C19.7731 27.414 22.5816 24.1982 22.5816 24.1982L6.45933 28.53L3.15308 47.3512V47.3514Z" fill="#FBBC04"/>
<path d="M41.6763 1.44996C49.5643 4.00014 56.3158 9.35393 60.3996 17.2486L41.4183 39.9298C41.4183 39.9298 44.2268 36.6559 44.2268 32.004C44.2268 25.019 38.3611 19.8008 32.0243 19.8008C26.0321 19.8008 22.5906 24.1815 22.5906 24.1815V9.89265L41.6763 1.44971V1.44996Z" fill="#4285F4"/>
<path d="M7.50366 11.4724C12.2149 5.82032 20.5049 0 31.9339 0C37.4789 0 41.6564 1.45972 41.6564 1.45972L22.5724 24.1947H9.05116L7.50366 11.4727V11.4724Z" fill="#1A73E8"/>
<path d="M3.153 47.3514C3.153 47.3514 0 41.1601 0 32.1907C0 23.7134 3.2865 16.3033 7.50375 11.4722L22.5833 24.1965L3.153 47.3514Z" fill="#EA4335"/>
</svg>
