<svg width="68" height="68" viewBox="0 0 68 68" fill="none" xmlns="http://www.w3.org/2000/svg">
<path fill-rule="evenodd" clip-rule="evenodd" d="M19.9827 0.204C23.6084 0.0370909 24.7644 0 34 0C43.2356 0 44.3916 0.0401818 48.0142 0.204C51.6367 0.367818 54.1095 0.945818 56.2731 1.78345C58.5387 2.63964 60.5942 3.978 62.2942 5.70891C64.0251 7.40582 65.3604 9.45818 66.2135 11.7269C67.0542 13.8905 67.6291 16.3633 67.796 19.9796C67.9629 23.6115 68 24.7675 68 34C68 43.2356 67.9598 44.3916 67.796 48.0173C67.6322 51.6336 67.0542 54.1064 66.2135 56.27C65.3603 58.539 64.0229 60.5948 62.2942 62.2942C60.5942 64.0251 58.5387 65.3604 56.2731 66.2135C54.1095 67.0542 51.6367 67.6291 48.0204 67.796C44.3916 67.9629 43.2356 68 34 68C24.7644 68 23.6084 67.9598 19.9827 67.796C16.3664 67.6322 13.8936 67.0542 11.73 66.2135C9.46103 65.3603 7.40526 64.0228 5.70582 62.2942C3.97608 60.5962 2.63752 58.5415 1.78345 56.2731C0.945818 54.1095 0.370909 51.6367 0.204 48.0204C0.0370909 44.3885 0 43.2325 0 34C0 24.7644 0.0401818 23.6084 0.204 19.9858C0.367818 16.3633 0.945818 13.8905 1.78345 11.7269C2.63878 9.45843 3.97837 7.4037 5.70891 5.70582C7.40594 3.97646 9.45964 2.63792 11.7269 1.78345C13.8905 0.945818 16.3633 0.370909 19.9796 0.204H19.9827ZM47.7391 6.324C44.1536 6.16018 43.078 6.12618 34 6.12618C24.922 6.12618 23.8464 6.16018 20.2609 6.324C16.9444 6.47545 15.1455 7.02873 13.9462 7.49545C12.3605 8.11364 11.2262 8.84618 10.0362 10.0362C8.90814 11.1336 8.04001 12.4696 7.49545 13.9462C7.02873 15.1455 6.47545 16.9444 6.324 20.2609C6.16018 23.8464 6.12618 24.922 6.12618 34C6.12618 43.078 6.16018 44.1536 6.324 47.7391C6.47545 51.0556 7.02873 52.8545 7.49545 54.0538C8.03945 55.5282 8.908 56.8665 10.0362 57.9638C11.1335 59.092 12.4718 59.9605 13.9462 60.5045C15.1455 60.9713 16.9444 61.5245 20.2609 61.676C23.8464 61.8398 24.9189 61.8738 34 61.8738C43.0811 61.8738 44.1536 61.8398 47.7391 61.676C51.0556 61.5245 52.8545 60.9713 54.0538 60.5045C55.6395 59.8864 56.7738 59.1538 57.9638 57.9638C59.092 56.8665 59.9605 55.5282 60.5045 54.0538C60.9713 52.8545 61.5245 51.0556 61.676 47.7391C61.8398 44.1536 61.8738 43.078 61.8738 34C61.8738 24.922 61.8398 23.8464 61.676 20.2609C61.5245 16.9444 60.9713 15.1455 60.5045 13.9462C59.8864 12.3605 59.1538 11.2262 57.9638 10.0362C56.8663 8.90822 55.5304 8.04011 54.0538 7.49545C52.8545 7.02873 51.0556 6.47545 47.7391 6.324ZM29.6573 44.4813C32.0826 45.4909 34.7832 45.6271 37.2978 44.8668C39.8124 44.1064 41.985 42.4967 43.4446 40.3124C44.9042 38.1281 45.5602 35.5049 45.3005 32.8907C45.0408 30.2765 43.8816 27.8336 42.0209 25.9791C40.8347 24.7937 39.4005 23.886 37.8214 23.3214C36.2423 22.7568 34.5577 22.5493 32.8888 22.7139C31.2199 22.8785 29.6083 23.4111 28.1699 24.2733C26.7316 25.1355 25.5023 26.3059 24.5706 27.7003C23.6388 29.0946 23.0279 30.6782 22.7816 32.337C22.5353 33.9958 22.6599 35.6885 23.1464 37.2934C23.6329 38.8983 24.4691 40.3753 25.595 41.6182C26.7208 42.8611 28.1082 43.8389 29.6573 44.4813ZM21.6425 21.6425C23.2653 20.0197 25.1919 18.7325 27.3122 17.8542C29.4325 16.976 31.705 16.5239 34 16.5239C36.295 16.5239 38.5675 16.976 40.6878 17.8542C42.8081 18.7325 44.7346 20.0197 46.3575 21.6425C47.9803 23.2653 49.2675 25.1919 50.1458 27.3122C51.024 29.4325 51.4761 31.705 51.4761 34C51.4761 36.295 51.024 38.5675 50.1458 40.6878C49.2675 42.8081 47.9803 44.7346 46.3575 46.3575C43.0801 49.6349 38.6349 51.4761 34 51.4761C29.3651 51.4761 24.9199 49.6349 21.6425 46.3575C18.3651 43.0801 16.5239 38.6349 16.5239 34C16.5239 29.3651 18.3651 24.9199 21.6425 21.6425ZM55.352 19.1265C55.7541 18.7472 56.0761 18.291 56.2988 17.785C56.5214 17.279 56.6403 16.7335 56.6484 16.1807C56.6564 15.6279 56.5535 15.0791 56.3457 14.5669C56.1378 14.0546 55.8293 13.5892 55.4384 13.1983C55.0475 12.8074 54.5821 12.4989 54.0699 12.2911C53.5576 12.0832 53.0088 11.9803 52.456 11.9883C51.9033 11.9964 51.3577 12.1153 50.8517 12.338C50.3457 12.5606 49.8895 12.8826 49.5102 13.2847C48.7724 14.0668 48.3685 15.1056 48.3842 16.1807C48.3998 17.2557 48.8339 18.2824 49.5941 19.0426C50.3544 19.8029 51.381 20.2369 52.456 20.2526C53.5311 20.2682 54.5699 19.8643 55.352 19.1265Z" fill="#1B1A19"/>
</svg>
