<svg width="96" height="84" viewBox="0 0 96 84" fill="none" xmlns="http://www.w3.org/2000/svg">
<path d="M36.8488 2.40967L3.2542 31.0299C2.33704 31.9636 2.03178 32.5694 2 33.8517V79.7158C2.05117 81.64 2.56017 81.9743 3.83651 82H72.6831C74.4959 81.9129 75.0215 81.462 75.1915 80.0293V33.4933C75.152 32.4928 74.9722 31.9443 73.8477 31.0299L39.402 2.40967C38.3994 1.88785 37.84 1.83957 36.8488 2.40967Z" stroke="#1B1A19" stroke-width="3"/>
<path d="M55.8488 2.40967L22.2542 31.0299C21.337 31.9636 21.0318 32.5694 21 33.8517V79.7158C21.0512 81.64 21.5602 81.9743 22.8365 82H91.6831C93.4959 81.9129 94.0215 81.462 94.1915 80.0293V33.4933C94.152 32.4928 93.9722 31.9443 92.8477 31.0299L58.402 2.40967C57.3994 1.88785 56.84 1.83957 55.8488 2.40967Z" stroke="#1B1A19" stroke-width="3"/>
</svg>
