<svg width="56" height="33" viewBox="0 0 56 33" fill="none" xmlns="http://www.w3.org/2000/svg">
<g clip-path="url(#clip0)">
<path d="M14 32C14.7059 24.9693 20.7045 19.4783 28 19.4783C35.2955 19.4783 41.2941 24.9693 42 32H39.1685C38.4761 26.5095 33.7398 22.2609 28 22.2609C22.2602 22.2609 17.5239 26.5095 16.8315 32H14ZM28 16.6957C23.3378 16.6957 19.5583 12.9582 19.5583 8.34783C19.5583 3.73745 23.3378 0 28 0C32.6622 0 36.4417 3.73745 36.4417 8.34783C36.4417 12.9582 32.6622 16.6957 28 16.6957ZM28 13.913C31.1081 13.913 33.6278 11.4214 33.6278 8.34783C33.6278 5.27424 31.1081 2.78261 28 2.78261C24.8919 2.78261 22.3722 5.27424 22.3722 8.34783C22.3722 11.4214 24.8919 13.913 28 13.913Z" fill="#1B1A19"/>
<path d="M55 27H52.1869C52.1869 23.0551 49.0382 19.8571 45.1541 19.8571C43.2015 19.8571 41.4347 20.6654 40.1604 21.9704C39.4928 21.298 38.7702 20.6818 38 20.1294C39.7948 18.2023 42.3362 17 45.1541 17C50.5918 17 55 21.4772 55 27Z" fill="#1B1A19"/>
<path d="M45 11.3333C45.7364 11.3333 46.3333 10.7364 46.3333 10C46.3333 9.26362 45.7364 8.66667 45 8.66667C44.2636 8.66667 43.6667 9.26362 43.6667 10C43.6667 10.7364 44.2636 11.3333 45 11.3333ZM45 14C42.7909 14 41 12.2091 41 10C41 7.79086 42.7909 6 45 6C47.2091 6 49 7.79086 49 10C49 12.2091 47.2091 14 45 14Z" fill="#1B1A19"/>
<path d="M1 27H3.81311C3.81311 23.0551 6.96179 19.8571 10.8459 19.8571C12.7985 19.8571 14.5653 20.6654 15.8396 21.9704C16.5072 21.298 17.2298 20.6818 18 20.1294C16.2052 18.2023 13.6638 17 10.8459 17C5.40816 17 1 21.4772 1 27Z" fill="#1B1A19"/>
<path d="M12 11.3333C11.2636 11.3333 10.6667 10.7364 10.6667 10C10.6667 9.26362 11.2636 8.66667 12 8.66667C12.7364 8.66667 13.3333 9.26362 13.3333 10C13.3333 10.7364 12.7364 11.3333 12 11.3333ZM12 14C14.2091 14 16 12.2091 16 10C16 7.79086 14.2091 6 12 6C9.79086 6 8 7.79086 8 10C8 12.2091 9.79086 14 12 14Z" fill="#1B1A19"/>
</g>
<defs>
<clipPath id="clip0">
<rect width="56" height="33" fill="white"/>
</clipPath>
</defs>
</svg>
