<svg width="28" height="32" viewBox="0 0 28 32" fill="none" xmlns="http://www.w3.org/2000/svg">
<path d="M0 32C0.7059 24.9693 6.70449 19.4783 14 19.4783C21.2955 19.4783 27.2941 24.9693 28 32H25.1685C24.4761 26.5095 19.7398 22.2609 14 22.2609C8.26019 22.2609 3.52386 26.5095 2.83151 32H0ZM14 16.6957C9.33779 16.6957 5.55832 12.9582 5.55832 8.34783C5.55832 3.73745 9.33779 0 14 0C18.6622 0 22.4417 3.73745 22.4417 8.34783C22.4417 12.9582 18.6622 16.6957 14 16.6957ZM14 13.913C17.1081 13.913 19.6278 11.4214 19.6278 8.34783C19.6278 5.27424 17.1081 2.78261 14 2.78261C10.8919 2.78261 8.37221 5.27424 8.37221 8.34783C8.37221 11.4214 10.8919 13.913 14 13.913Z" fill="#1B1A19"/>
</svg>
