<svg xmlns="http://www.w3.org/2000/svg" width="101.312" height="87.177" viewBox="0 0 101.312 87.177">
  <g id="Group_21" data-name="Group 21" transform="translate(-691.131 -624.323)">
    <path id="Vector_13" data-name="Vector 13" d="M38.691,2.431,3.32,32.564A3.708,3.708,0,0,0,2,35.535V83.824c.054,2.026.59,2.378,1.934,2.4H76.419c1.909-.092,2.462-.566,2.641-2.075v-49a2.943,2.943,0,0,0-1.415-2.594L41.379,2.431A2.311,2.311,0,0,0,38.691,2.431Z" transform="translate(690.631 623.772)" fill="none" stroke="#8ec39b" stroke-width="3"/>
    <path id="Vector_13-2" data-name="Vector 13" d="M38.691,2.431,3.32,32.564A3.708,3.708,0,0,0,2,35.535V83.824c.054,2.026.59,2.378,1.934,2.4H76.419c1.909-.092,2.462-.566,2.641-2.075v-49a2.943,2.943,0,0,0-1.415-2.594L41.379,2.431A2.311,2.311,0,0,0,38.691,2.431Z" transform="translate(711.883 623.772)" fill="none" stroke="#8ec39b" stroke-width="3"/>
    <path id="Vector_15" data-name="Vector 15" d="M28.146,1.384,2.975,23.375c-.7.874-1.376,6.242-1.4,7.443V73.754c.039,1.8.427,2.114,1.4,2.138h52.5c1.382-.082,1.783-.5,1.913-1.845V30.483c-.03-.937-1.055-6.251-1.913-7.107L30.093,1.384A1.428,1.428,0,0,0,28.146,1.384Z" transform="translate(712.309 634.108)" fill="rgba(142,195,155,0.3)" stroke="#8ec39b" stroke-width="1.5"/>
  </g>
</svg>
