<svg xmlns="http://www.w3.org/2000/svg" width="101.312" height="87.177" viewBox="0 0 101.312 87.177">
  <g id="Group_22" data-name="Group 22" transform="translate(-917.131 -624.323)">
    <path id="Vector_13" data-name="Vector 13" d="M38.691,2.431,3.32,32.564A3.708,3.708,0,0,0,2,35.535V83.824c.054,2.026.59,2.378,1.934,2.4H76.419c1.909-.092,2.462-.566,2.641-2.075v-49a2.943,2.943,0,0,0-1.415-2.594L41.379,2.431A2.311,2.311,0,0,0,38.691,2.431Z" transform="translate(916.631 623.772)" fill="none" stroke="#fff" stroke-width="3"/>
    <path id="Vector_13-2" data-name="Vector 13" d="M38.691,2.431,3.32,32.564A3.708,3.708,0,0,0,2,35.535V83.824c.054,2.026.59,2.378,1.934,2.4H76.419c1.909-.092,2.462-.566,2.641-2.075v-49a2.943,2.943,0,0,0-1.415-2.594L41.379,2.431A2.311,2.311,0,0,0,38.691,2.431Z" transform="translate(937.883 623.772)" fill="none" stroke="#fff" stroke-width="3"/>
  </g>
</svg>
