<svg width="50" height="50" viewBox="0 0 50 50" fill="none" xmlns="http://www.w3.org/2000/svg">
<path d="M24.9989 1C11.7665 1 0.999512 11.7663 0.999512 25C0.999512 38.2337 11.7665 49 24.9989 49C38.2326 48.9994 48.9995 38.2331 48.9995 24.9994C48.9995 11.7657 38.2326 1 24.9989 1ZM24.9989 47.8506C12.3989 47.8506 2.14886 37.5994 2.14886 24.9994C2.14886 12.3994 12.3989 2.14873 24.9989 2.14873C37.5989 2.14873 47.8502 12.3994 47.8502 24.9994C47.8502 37.5994 37.5989 47.8506 24.9989 47.8506Z" fill="#1B1A19"/>
<path d="M36.702 12.4061C36.6944 12.3962 36.6844 12.3924 36.6752 12.3841C36.6645 12.3727 36.6591 12.3575 36.6484 12.3469C36.4034 12.104 36.0366 12 35.4201 12C32.227 12 19.9604 15.1767 16.0504 19.8669C12.0409 24.677 14.8168 29.0963 16.5022 31.0425C14.924 33.1565 13.6827 35.2097 13.0387 37.0527C12.9085 37.4254 13.1092 37.8315 13.4844 37.9605C13.5625 37.9871 13.6414 38 13.7195 38C14.0174 38 14.2969 37.8148 14.4002 37.5195C14.9776 35.8663 16.0902 34.0104 17.5199 32.0801C18.6655 33.1132 20.9689 34.7915 23.8312 34.7922C23.8328 34.7922 23.8328 34.7922 23.8328 34.7922C25.6606 34.7922 27.4196 34.1106 29.0629 32.7648C33.5349 29.1031 36.8069 17.7036 36.9915 13.8718C37.0259 13.1576 36.9432 12.737 36.7281 12.4547C36.7166 12.4387 36.7143 12.4205 36.702 12.4061ZM33.5892 21.9657L27.755 21.0647C31.0301 18.0148 34.005 15.5175 35.5243 14.2703C35.3466 15.8575 34.659 18.8482 33.5892 21.9657ZM30.7958 28.3121C30.7958 28.3121 30.7958 28.3121 30.7942 28.3121L21.3196 27.5167C22.956 25.7238 24.7149 23.9552 26.4394 22.3065L33.0976 23.3342C32.4383 25.0892 31.6618 26.8221 30.7958 28.3121ZM25.47 21.2286C23.819 22.8052 22.1336 24.4948 20.5446 26.2225V18.2091C20.5446 18.184 20.5324 18.162 20.5293 18.1377C22.0072 17.2853 23.7256 16.524 25.4692 15.8727V21.2286H25.47ZM26.9103 15.3619C29.7069 14.4168 32.4153 13.7777 34.1567 13.5363C32.5447 14.8639 29.8539 17.1403 26.9103 19.8737V15.3619ZM17.1585 20.7755C17.6623 20.1735 18.3278 19.5959 19.1043 19.0479V27.8339C18.5108 28.5171 17.9403 29.201 17.3974 29.8826C15.8475 28.0146 14.0089 24.5563 17.1585 20.7755ZM28.1455 31.6641C26.7664 32.7921 25.316 33.3644 23.832 33.3644C23.832 33.3644 23.832 33.3644 23.8305 33.3644C21.3671 33.3644 19.347 31.8198 18.3921 30.9362C18.9396 30.2455 19.5216 29.5471 20.1288 28.8496L29.9266 29.6716C29.3615 30.4709 28.7665 31.1541 28.1455 31.6641Z" fill="#1B1A19"/>
</svg>
